<?xml version="1.0" encoding="UTF-8"?>
<svg xmlns="http://www.w3.org/2000/svg" width="145" height="40" viewBox="0 0 145 40" fill="none">
  <g id="Intellectsoft 1" clip-path="url(#clip0_1068_26)">
    <g id="Group">
      <path id="Vector" fill-rule="evenodd" clip-rule="evenodd" d="M19.9113 0.0380859C30.8338 0.0380859 39.7841 9.01586 39.7841 20C39.7841 30.9841 30.8464 39.9619 19.9113 39.9619C8.9763 39.9619 0.0386353 30.9841 0.0386353 20C0.0386353 9.01586 8.98894 0.0380859 19.9113 0.0380859ZM29.696 12.4698C29.7466 12.0635 29.5443 12.0127 29.1398 12.0127H21.3904C20.7963 12.0127 20.5055 12.419 20.3032 13.0159C20.1136 13.6254 17.2692 23.9492 17.029 24.9016C16.7889 25.854 15.9166 26.2984 15.3224 26.2984H10.8726C10.2657 26.2984 9.87386 27.0476 9.87386 27.5302C9.87386 27.8349 10.0761 28 10.468 28H20.5055C21.3904 28 21.5927 26.9968 21.5927 26.9968L24.8669 14.5143C24.8669 14.5143 25.0692 13.5111 25.8656 13.5111H28.849C29.203 13.5111 29.6328 13.0413 29.696 12.4698ZM10.9737 23.8984C10.7714 24.5968 10.9737 24.8889 11.4794 24.9016H14.703C15.0949 24.9016 15.4362 24.5968 15.6385 23.8984C15.8407 23.2127 18.546 13.5238 18.723 12.927C18.9 12.3175 18.723 11.9238 18.3311 11.9238H15.0569C14.3617 11.9238 14.2605 12.3302 14.0583 12.927C13.856 13.5238 11.176 23.3016 10.9737 23.8984Z" fill="white"></path>
      <g id="Group_2">
        <path id="Vector_2" fill-rule="evenodd" clip-rule="evenodd" d="M48.3305 12.0759C48.3305 11.8727 48.3937 11.6949 48.5328 11.5425C48.6718 11.4029 48.8488 11.3267 49.089 11.3267C49.3292 11.3267 49.5062 11.4029 49.6452 11.5425C49.7843 11.6822 49.8475 11.86 49.8475 12.0759C49.8475 12.2917 49.7843 12.4568 49.6452 12.5965C49.5062 12.7362 49.3166 12.8124 49.089 12.8124C48.8488 12.8124 48.6718 12.7362 48.5328 12.5965C48.3937 12.4568 48.3305 12.279 48.3305 12.0759ZM49.6326 25.0409H48.5201V14.9838H49.6326V25.0409Z" fill="white"></path>
        <path id="Vector_3" fill-rule="evenodd" clip-rule="evenodd" d="M53.7032 14.9712L53.7411 16.6855C54.1204 16.0633 54.5881 15.5935 55.1443 15.2633C55.7006 14.9331 56.32 14.7808 57.0027 14.7808C58.0772 14.7808 58.8736 15.0855 59.4046 15.695C59.9229 16.3046 60.1884 17.2189 60.201 18.4252V25.0284H59.1012V18.4125C59.1012 17.5109 58.8989 16.8379 58.5323 16.4062C58.1531 15.9617 57.5589 15.7458 56.7372 15.7458C56.0545 15.7458 55.4477 15.9617 54.9168 16.3935C54.3858 16.8252 53.994 17.4093 53.7411 18.1331V25.0284H52.6413V14.9712H53.7032Z" fill="white"></path>
        <path id="Vector_4" fill-rule="evenodd" clip-rule="evenodd" d="M64.778 12.4063V14.984H66.8512V15.8983H64.778V22.6031C64.778 23.1618 64.8791 23.5809 65.0814 23.8475C65.2836 24.1269 65.6123 24.2539 66.0801 24.2539C66.2697 24.2539 66.5605 24.2285 66.9776 24.165L67.0282 25.0666C66.7374 25.1682 66.3455 25.219 65.8399 25.219C65.0814 25.219 64.5251 25.0031 64.1838 24.5586C63.8425 24.1142 63.6655 23.4666 63.6655 22.6031V15.8856H61.8198V14.9713H63.6655V12.3936H64.778V12.4063Z" fill="white"></path>
        <path id="Vector_5" fill-rule="evenodd" clip-rule="evenodd" d="M73.033 25.2316C72.186 25.2316 71.4149 25.0157 70.7196 24.5966C70.0369 24.1776 69.4934 23.5935 69.1141 22.8316C68.7349 22.0823 68.5452 21.2316 68.5452 20.2919V19.8982C68.5452 18.9331 68.7349 18.0569 69.1015 17.2823C69.4807 16.5077 69.999 15.8982 70.6564 15.4538C71.3264 15.0093 72.047 14.7935 72.8181 14.7935C74.0317 14.7935 74.9925 15.2125 75.7131 16.0506C76.4336 16.8887 76.7876 18.0189 76.7876 19.4665V20.0887H69.6451V20.3046C69.6451 21.4474 69.9737 22.3998 70.6185 23.149C71.2758 23.9109 72.0849 24.2919 73.0709 24.2919C73.6651 24.2919 74.1834 24.1776 74.6385 23.9617C75.0936 23.7458 75.4981 23.403 75.8774 22.9204L76.5727 23.4538C75.7636 24.6347 74.5753 25.2316 73.033 25.2316ZM72.8308 15.7458C71.9964 15.7458 71.3011 16.0506 70.7196 16.6728C70.1507 17.2823 69.7968 18.1077 69.683 19.149H75.6878V19.022C75.6625 18.0569 75.3844 17.2696 74.8661 16.6601C74.3478 16.0379 73.6651 15.7458 72.8308 15.7458Z" fill="white"></path>
        <path id="Vector_6" fill-rule="evenodd" clip-rule="evenodd" d="M80.1875 25.0411H79.0751V10.7554H80.1875V25.0411Z" fill="white"></path>
        <path id="Vector_7" fill-rule="evenodd" clip-rule="evenodd" d="M84.4357 25.0411H83.3232V10.7554H84.4357V25.0411Z" fill="white"></path>
        <path id="Vector_8" fill-rule="evenodd" clip-rule="evenodd" d="M91.3253 25.2316C90.4783 25.2316 89.7072 25.0157 89.0119 24.5966C88.3292 24.1776 87.7857 23.5935 87.4064 22.8316C87.0271 22.0823 86.8375 21.2316 86.8375 20.2919V19.8982C86.8375 18.9331 87.0271 18.0569 87.3938 17.2823C87.773 16.5077 88.2913 15.8982 88.9487 15.4538C89.6187 15.0093 90.3393 14.7935 91.1104 14.7935C92.324 14.7935 93.2848 15.2125 94.0054 16.0506C94.7259 16.8887 95.0799 18.0189 95.0799 19.4665V20.0887H87.9374V20.3046C87.9374 21.4474 88.266 22.3998 88.9108 23.149C89.5681 23.9109 90.3772 24.2919 91.3632 24.2919C91.9574 24.2919 92.4757 24.1776 92.9308 23.9617C93.3859 23.7458 93.7904 23.403 94.1697 22.9204L94.865 23.4538C94.0559 24.6347 92.8802 25.2316 91.3253 25.2316ZM91.1231 15.7458C90.2887 15.7458 89.5934 16.0506 89.0119 16.6728C88.443 17.2823 88.0891 18.1077 87.9753 19.149H93.9801V19.022C93.9548 18.0569 93.6767 17.2696 93.1584 16.6601C92.6401 16.0379 91.9574 15.7458 91.1231 15.7458Z" fill="white"></path>
        <path id="Vector_9" fill-rule="evenodd" clip-rule="evenodd" d="M100.945 24.2919C101.716 24.2919 102.361 24.076 102.879 23.6316C103.398 23.1998 103.688 22.6284 103.726 21.93H104.788C104.763 22.5395 104.561 23.0982 104.219 23.6062C103.878 24.1141 103.398 24.5077 102.816 24.7871C102.235 25.0665 101.602 25.2189 100.945 25.2189C99.6304 25.2189 98.5938 24.7617 97.8226 23.8474C97.0515 22.9331 96.6722 21.7014 96.6722 20.1395V19.8093C96.6722 18.8189 96.8492 17.9427 97.1905 17.1808C97.5319 16.4189 98.0375 15.8347 98.6823 15.4157C99.327 14.9966 100.085 14.7935 100.945 14.7935C102.045 14.7935 102.955 15.1236 103.663 15.7839C104.371 16.4443 104.763 17.3077 104.801 18.3744H103.739C103.688 17.5871 103.41 16.9522 102.892 16.4696C102.374 15.9871 101.729 15.7458 100.945 15.7458C99.9464 15.7458 99.1627 16.1141 98.6191 16.8379C98.0628 17.5617 97.7847 18.5776 97.7847 19.8855V20.2157C97.7847 21.4982 98.0628 22.5014 98.6191 23.2252C99.1627 23.9236 99.9338 24.2919 100.945 24.2919Z" fill="white"></path>
        <path id="Vector_10" fill-rule="evenodd" clip-rule="evenodd" d="M108.733 12.4063V14.984H110.806V15.8983H108.733V22.6031C108.733 23.1618 108.834 23.5809 109.037 23.8475C109.239 24.1269 109.567 24.2539 110.035 24.2539C110.225 24.2539 110.516 24.2285 110.933 24.165L110.983 25.0666C110.693 25.1682 110.301 25.219 109.795 25.219C109.037 25.219 108.48 25.0031 108.139 24.5586C107.798 24.1142 107.621 23.4666 107.621 22.6031V15.8856H105.775V14.9713H107.621V12.3936H108.733V12.4063Z" fill="white"></path>
        <path id="Vector_11" fill-rule="evenodd" clip-rule="evenodd" d="M118.113 22.2601C118.113 21.93 117.949 21.676 117.633 21.4855C117.304 21.295 116.786 21.13 116.078 20.9776C113.701 20.4696 112.5 19.4538 112.5 17.93C112.5 17.0411 112.867 16.2919 113.613 15.695C114.346 15.0982 115.319 14.7935 116.507 14.7935C117.784 14.7935 118.796 15.0982 119.554 15.695C120.313 16.2919 120.692 17.0792 120.692 18.0443H118.012C118.012 17.6633 117.885 17.3458 117.645 17.0919C117.392 16.8379 117.013 16.7109 116.482 16.7109C116.027 16.7109 115.686 16.8125 115.433 17.0157C115.18 17.2189 115.066 17.4855 115.066 17.803C115.066 18.095 115.205 18.3363 115.484 18.5268C115.762 18.7046 116.242 18.8696 116.899 18.9966C117.569 19.1363 118.126 19.276 118.581 19.4538C119.997 19.9744 120.705 20.876 120.705 22.1585C120.705 23.0728 120.313 23.822 119.529 24.3808C118.745 24.9522 117.734 25.2316 116.495 25.2316C115.66 25.2316 114.915 25.0792 114.257 24.7744C113.6 24.4696 113.094 24.0633 112.728 23.5427C112.361 23.022 112.171 22.4506 112.171 21.8411H114.712C114.738 22.3236 114.915 22.6792 115.243 22.9331C115.572 23.1871 116.014 23.3141 116.558 23.3141C117.076 23.3141 117.456 23.2125 117.721 23.022C117.987 22.8316 118.113 22.5776 118.113 22.2601Z" fill="white"></path>
        <path id="Vector_12" fill-rule="evenodd" clip-rule="evenodd" d="M122.019 19.9109C122.019 18.9077 122.208 18.0189 122.588 17.2443C122.967 16.457 123.523 15.8601 124.244 15.4284C124.964 14.9966 125.799 14.7808 126.747 14.7808C128.099 14.7808 129.199 15.1998 130.059 16.0252C130.919 16.8506 131.386 17.9808 131.487 19.4157L131.5 20.1014C131.5 21.6506 131.07 22.8823 130.211 23.822C129.351 24.749 128.201 25.2189 126.759 25.2189C125.318 25.2189 124.168 24.749 123.296 23.822C122.423 22.895 122.006 21.6252 122.006 20.0252V19.9109H122.019ZM124.699 20.1014C124.699 21.0538 124.876 21.7903 125.23 22.2982C125.584 22.8062 126.102 23.0601 126.772 23.0601C127.417 23.0601 127.922 22.8062 128.289 22.3109C128.656 21.8157 128.833 21.0157 128.833 19.9109C128.833 18.9712 128.656 18.2474 128.289 17.7268C127.922 17.2062 127.417 16.9522 126.747 16.9522C126.089 16.9522 125.584 17.2062 125.23 17.7268C124.876 18.2347 124.699 19.0347 124.699 20.1014Z" fill="white"></path>
        <path id="Vector_13" fill-rule="evenodd" clip-rule="evenodd" d="M133.889 25.0411V16.9522H132.398V14.984H133.889V14.1332C133.889 13.003 134.218 12.1268 134.863 11.5046C135.507 10.8824 136.405 10.5649 137.568 10.5649C137.935 10.5649 138.39 10.6284 138.933 10.7554L138.908 12.8253C138.681 12.7745 138.415 12.7364 138.099 12.7364C137.088 12.7364 136.595 13.2189 136.595 14.1713V14.984H138.579V16.9522H136.595V25.0411H133.889Z" fill="white"></path>
        <path id="Vector_14" fill-rule="evenodd" clip-rule="evenodd" d="M143.156 12.5078V14.984H144.863V16.9523H143.156V21.9681C143.156 22.3364 143.232 22.6031 143.371 22.7681C143.51 22.9332 143.788 23.0094 144.18 23.0094C144.471 23.0094 144.737 22.984 144.964 22.9459V24.9777C144.433 25.1427 143.902 25.2189 143.346 25.2189C141.475 25.2189 140.514 24.2665 140.476 22.3618V16.9396H139.01V14.9713H140.476V12.4951H143.156V12.5078Z" fill="white"></path>
      </g>
    </g>
  </g>
  <defs>
    <clipPath id="clip0_1068_26">
      <rect width="145" height="40" fill="white"></rect>
    </clipPath>
  </defs>
</svg>
