<?xml version="1.0" encoding="UTF-8"?>
<svg xmlns="http://www.w3.org/2000/svg" width="40" height="40" viewBox="0 0 40 40" fill="none">
  <path d="M33.3333 23.3334C35.1743 23.3334 36.6667 21.841 36.6667 20.0001C36.6667 18.1591 35.1743 16.6667 33.3333 16.6667C31.4924 16.6667 30 18.1591 30 20.0001C30 21.841 31.4924 23.3334 33.3333 23.3334Z" stroke="white" stroke-width="2" stroke-linecap="round" stroke-linejoin="round"></path>
  <path d="M33.3333 9.99992C35.1743 9.99992 36.6667 8.50753 36.6667 6.66659C36.6667 4.82564 35.1743 3.33325 33.3333 3.33325C31.4924 3.33325 30 4.82564 30 6.66659C30 8.50753 31.4924 9.99992 33.3333 9.99992Z" stroke="white" stroke-width="2" stroke-linecap="round" stroke-linejoin="round"></path>
  <path d="M33.3333 36.6667C35.1743 36.6667 36.6667 35.1743 36.6667 33.3333C36.6667 31.4924 35.1743 30 33.3333 30C31.4924 30 30 31.4924 30 33.3333C30 35.1743 31.4924 36.6667 33.3333 36.6667Z" stroke="white" stroke-width="2" stroke-linecap="round" stroke-linejoin="round"></path>
  <path d="M6.66659 23.3334C8.50753 23.3334 9.99992 21.841 9.99992 20.0001C9.99992 18.1591 8.50753 16.6667 6.66659 16.6667C4.82564 16.6667 3.33325 18.1591 3.33325 20.0001C3.33325 21.841 4.82564 23.3334 6.66659 23.3334Z" stroke="white" stroke-width="2" stroke-linecap="round" stroke-linejoin="round"></path>
  <path d="M10 20H30" stroke="white" stroke-width="2" stroke-linecap="round" stroke-linejoin="round"></path>
  <path d="M29.9999 6.66675H23.3333C19.9999 6.66675 18.3333 8.33341 18.3333 11.6667V28.3334C18.3333 31.6667 19.9999 33.3334 23.3333 33.3334H29.9999" stroke="white" stroke-width="2" stroke-linecap="round" stroke-linejoin="round"></path>
</svg>
