<?xml version="1.0" encoding="UTF-8"?>
<svg xmlns="http://www.w3.org/2000/svg" width="40" height="40" viewBox="0 0 40 40" fill="none">
  <path d="M14.4666 21.2H17.3666V27.95C17.3666 28.95 18.5999 29.4166 19.2666 28.6666L26.3666 20.6C26.9833 19.9 26.4833 18.8 25.5499 18.8H22.6499V12.05C22.6499 11.05 21.4166 10.5833 20.7499 11.3333L13.6499 19.4C13.0333 20.1 13.5333 21.2 14.4666 21.2Z" stroke="white" stroke-width="2" stroke-miterlimit="10" stroke-linecap="round" stroke-linejoin="round"></path>
  <path d="M19.9501 36.6667C29.1549 36.6667 36.6168 29.2048 36.6168 20C36.6168 10.7953 29.1549 3.33337 19.9501 3.33337C10.7454 3.33337 3.28345 10.7953 3.28345 20C3.28345 29.2048 10.7454 36.6667 19.9501 36.6667Z" stroke="white" stroke-width="2" stroke-miterlimit="10" stroke-linecap="round" stroke-linejoin="round"></path>
</svg>
