<?xml version="1.0" encoding="UTF-8"?>
<svg xmlns="http://www.w3.org/2000/svg" width="40" height="40" viewBox="0 0 40 40" fill="none">
  <path d="M35 11.6666V28.3333C35 33.3333 32.5 36.6666 26.6667 36.6666H13.3333C7.5 36.6666 5 33.3333 5 28.3333V11.6666C5 6.66659 7.5 3.33325 13.3333 3.33325H26.6667C32.5 3.33325 35 6.66659 35 11.6666Z" stroke="white" stroke-width="2" stroke-miterlimit="10" stroke-linecap="round" stroke-linejoin="round"></path>
  <path d="M27.0833 18.3333H12.9167C11.3167 18.3333 10 17.0166 10 15.4166V11.2499C10 9.64992 11.3167 8.33325 12.9167 8.33325H27.0833C28.6833 8.33325 30 9.64992 30 11.2499V15.4166C30 17.0166 28.6833 18.3333 27.0833 18.3333Z" stroke="white" stroke-width="2" stroke-miterlimit="10" stroke-linecap="round" stroke-linejoin="round"></path>
  <path d="M17.1666 25.4668L13.3333 29.3001" stroke="white" stroke-width="2" stroke-miterlimit="10" stroke-linecap="round" stroke-linejoin="round"></path>
  <path d="M13.3833 25.5166L17.2166 29.3499" stroke="white" stroke-width="2" stroke-miterlimit="10" stroke-linecap="round" stroke-linejoin="round"></path>
  <path d="M27.4834 25.55H27.5168" stroke="white" stroke-width="2.5" stroke-miterlimit="10" stroke-linecap="round" stroke-linejoin="round"></path>
  <path d="M24.1499 29.1667V29.1333" stroke="white" stroke-width="2.5" stroke-miterlimit="10" stroke-linecap="round" stroke-linejoin="round"></path>
</svg>
