<?xml version="1.0" encoding="UTF-8"?>
<svg xmlns="http://www.w3.org/2000/svg" width="68" height="30" viewBox="0 0 68 30" fill="none">
  <path d="M11.238 10.0726C11.3127 6.31969 9.21866 3.04944 8.12804 2.26347C8.12306 2.25841 8.02595 2.20534 8.03343 2.35192L8.03093 2.35698C7.92386 9.44589 4.3333 11.3539 2.38114 13.9545C-1.95144 19.7317 1.66403 26.3227 6.3477 27.5712C6.42737 27.5914 6.64401 27.6571 7.05485 27.7431C7.26899 27.7885 7.33124 27.604 7.17438 27.3286C6.61412 26.3355 5.61813 24.6675 5.42392 22.5268C4.97074 17.5533 11.1534 14.4422 11.238 10.0726Z" fill="white"></path>
  <path d="M13.6014 12.4783C13.5641 12.4505 13.5118 12.453 13.5068 12.5011C13.4072 13.4033 12.4884 15.2735 11.2782 17.0223C7.20463 22.9184 9.25638 25.5921 10.85 27.4472C11.1438 27.7908 11.2907 27.7151 11.4451 27.47C11.5895 27.2375 11.8086 26.9417 12.7498 26.4894C12.8967 26.4186 16.4525 24.5029 16.8384 20.1409C17.2095 15.9179 14.5426 13.2516 13.6014 12.4783Z" fill="white"></path>
  <path d="M34.7534 11.4019V26.9166H31.474V20.649H25.1719V26.9166H21.8103V11.4019H25.1719V17.6694H31.474V11.4019H34.7534Z" fill="white"></path>
  <path d="M49.9126 11.4019V14.4699H48.3514H45.204V26.9166H41.8302V14.4724H38.7674H37.2062V11.4019H49.9126Z" fill="white"></path>
  <path fill-rule="evenodd" clip-rule="evenodd" d="M61.857 26.9316L58.0025 21.5335L54.1778 26.9089L50.438 26.9164L56.1076 18.9961L50.7567 11.4043H54.494L65.5795 26.9341H61.857V26.9316Z" fill="white"></path>
  <path d="M59.051 14.8768L60.9011 17.4849L65.2835 11.4019H61.566L59.051 14.8768Z" fill="white"></path>
</svg>
