<?xml version="1.0" encoding="UTF-8"?>
<svg xmlns="http://www.w3.org/2000/svg" width="280" height="80" viewBox="0 0 280 80" fill="none">
  <g clip-path="url(#clip0_3106_3801)">
    <path d="M110.747 19H104.009V61H110.747V19Z" fill="#E2E2E9"></path>
    <path d="M134.329 47.6019C134.329 54.0296 128.91 54.542 127.298 54.542C123.27 54.542 122.538 50.7822 122.538 48.5142V32.4399H115.8V48.4806C115.8 52.4622 117.053 55.7483 119.25 57.939C121.19 59.876 124.098 60.9344 127.248 60.9344C129.481 60.9344 132.645 60.2406 134.329 58.7067V60.9999H141.067V32.4399H134.329V47.6019Z" fill="#E2E2E9"></path>
    <path d="M154.543 22.3599H147.805V32.4399H142.752V39.1599H147.805V60.9999H154.543V39.1599H159.597V32.4399H154.543V22.3599Z" fill="#E2E2E9"></path>
    <path d="M180.816 52.4606C179.349 53.776 177.411 54.5052 175.286 54.5052C170.599 54.5052 167.158 51.0729 167.158 46.3605C167.158 41.6481 170.49 38.3604 175.286 38.3604C177.374 38.3604 179.349 39.0542 180.853 40.3696L181.875 41.2466L186.418 36.7173L185.281 35.6942C182.608 33.2868 179.059 31.936 175.284 31.936C166.861 31.936 160.745 37.9975 160.745 46.3252C160.745 54.6177 167.008 60.8959 175.284 60.8959C179.13 60.8959 182.716 59.5452 185.355 57.0991L186.454 56.076L181.84 51.55L180.816 52.4606Z" fill="#E2E2E9"></path>
    <path d="M210.468 34.9298C208.527 32.9944 206.253 31.936 203.103 31.936C200.869 31.936 198.339 32.6298 196.655 34.162V19H189.917V61H196.655V45.2668C196.655 38.8391 201.233 38.3284 202.845 38.3284C206.873 38.3284 206.762 42.0899 206.762 44.3546V61H213.5V44.3898C213.5 40.4082 212.666 37.1222 210.468 34.9298Z" fill="#E2E2E9"></path>
    <path d="M175.063 41.5757C177.755 41.5757 179.936 43.7479 179.936 46.4342C179.936 49.1172 177.755 51.2928 175.063 51.2928C172.373 51.2928 170.193 49.1172 170.193 46.4342C170.195 43.7496 172.375 41.5757 175.063 41.5757Z" fill="#E2E2E9"></path>
    <path d="M94.5758 50.4511C92.0137 53.0803 88.5336 54.5049 84.8715 54.5049C77.3655 54.5049 71.9078 48.6249 71.9078 40.5542C71.9078 32.4465 77.3655 26.5665 84.8715 26.5665C88.4982 26.5665 91.9396 27.9895 94.5404 30.5834L95.5646 31.6065L100.069 27.1142L99.0801 26.0911C95.3456 22.2556 90.2922 20.1758 84.8715 20.1758C73.8129 20.1758 65.5 28.9403 65.5 40.5895C65.5 52.2033 73.85 60.9326 84.8715 60.9326C90.3292 60.9326 95.3827 58.8158 99.1171 54.9803L100.106 53.9572L95.6387 49.3927L94.5758 50.4511Z" fill="#E2E2E9"></path>
  </g>
  <defs>
    <clipPath id="clip0_3106_3801">
      <rect width="148" height="42" fill="white" transform="translate(65.5 19)"></rect>
    </clipPath>
  </defs>
</svg>
