<?xml version="1.0" encoding="UTF-8"?>
<svg xmlns="http://www.w3.org/2000/svg" width="280" height="80" viewBox="0 0 280 80" fill="none">
  <g clip-path="url(#clip0_3106_3826)">
    <mask id="mask0_3106_3826" style="mask-type:luminance" maskUnits="userSpaceOnUse" x="45" y="17" width="191" height="46">
      <path d="M235.075 17H45V63H235.075V17Z" fill="white"></path>
    </mask>
    <g mask="url(#mask0_3106_3826)">
      <path d="M75.9335 33.0926H72.5859V17.2676H75.9335V33.0926Z" fill="#E2E2E9"></path>
      <path d="M89.7245 33.0938H86.7117V26.12C86.7117 24.7118 85.9752 23.9742 84.5692 23.9742C83.498 23.9742 82.6277 24.4436 81.9581 25.3153V33.0938H78.9453V21.6273H81.9581V23.1025C82.9624 21.8955 84.3014 21.292 85.9752 21.292C87.1804 21.292 88.1176 21.6273 88.7871 22.2978C89.4567 22.9684 89.7245 23.8401 89.7245 24.98V33.0938Z" fill="#E2E2E9"></path>
      <path d="M96.4207 33.0933H93.4078V24.242H91.5332V21.6268H93.4078V21.0233C93.4078 19.8163 93.7426 18.8105 94.479 18.1399C95.2155 17.3353 96.1528 17 97.291 17C98.1614 17 98.8979 17.1341 99.5004 17.4694L98.8309 19.6822C98.5631 19.481 98.2284 19.414 97.8266 19.414C97.3579 19.414 97.0233 19.5481 96.7554 19.8163C96.4876 20.0846 96.3537 20.4869 96.3537 21.0233V21.6268H98.697V24.242H96.3537V33.0933H96.4207ZM103.518 33.0933H100.505V17.2682H103.518V33.0933Z" fill="#E2E2E9"></path>
      <path d="M117.242 33.0944H114.229V31.6192C113.224 32.7591 111.885 33.3626 110.212 33.3626C109.007 33.3626 108.069 33.0273 107.467 32.4238C106.864 31.8203 106.529 30.8815 106.529 29.7416V21.6279H109.542V28.6017C109.542 30.0098 110.279 30.7474 111.685 30.7474C112.756 30.7474 113.626 30.3451 114.296 29.4734V21.6279H117.308V33.0944H117.242Z" fill="#E2E2E9"></path>
      <path d="M125.613 33.3619C123.872 33.3619 122.399 32.8255 121.194 31.6856C120.056 30.5456 119.453 29.1375 119.453 27.327C119.453 25.6506 119.989 24.1754 121.127 23.0354C122.265 21.8955 123.671 21.292 125.412 21.292C127.153 21.292 128.492 21.8955 129.563 23.0354C130.634 24.1754 131.17 25.7176 131.17 27.5952V28.2658H122.667C122.734 29.0033 123.069 29.6739 123.671 30.1433C124.274 30.6797 125.01 30.8809 125.947 30.8809C126.483 30.8809 127.019 30.7468 127.621 30.5456C128.224 30.3444 128.692 30.0762 129.027 29.741L130.366 31.6856C129.161 32.8255 127.621 33.3619 125.613 33.3619ZM128.224 26.2541C128.157 25.5835 127.889 25.0471 127.42 24.5107C126.952 23.9742 126.282 23.706 125.345 23.706C124.475 23.706 123.805 23.9742 123.336 24.5107C122.868 25.0471 122.6 25.5835 122.533 26.2541H128.224Z" fill="#E2E2E9"></path>
      <path d="M144.09 33.0938H141.078V26.12C141.078 24.7118 140.341 23.9742 138.935 23.9742C137.864 23.9742 136.993 24.4436 136.324 25.3153V33.0938H133.311V21.6273H136.324V23.1025C137.328 21.8955 138.667 21.292 140.341 21.292C141.546 21.292 142.484 21.6273 143.153 22.2978C143.822 22.9684 144.09 23.8401 144.09 24.98V33.0938Z" fill="#E2E2E9"></path>
      <path d="M152.389 33.3633C150.649 33.3633 149.176 32.8269 148.037 31.6869C146.899 30.547 146.297 29.1388 146.297 27.3283C146.297 25.5848 146.899 24.1096 148.037 23.0367C149.176 21.8968 150.649 21.3604 152.389 21.3604C154.397 21.3604 155.938 22.0309 156.942 23.4391L155 25.3166C154.465 24.512 153.661 24.1096 152.59 24.1096C151.653 24.1096 150.916 24.4449 150.38 25.0484C149.778 25.6519 149.51 26.4566 149.51 27.4624C149.51 28.4683 149.778 29.2729 150.38 29.8764C150.983 30.4799 151.72 30.8152 152.59 30.8152C153.594 30.8152 154.397 30.4129 155 29.6082L156.942 31.4187C155.938 32.6927 154.465 33.3633 152.389 33.3633Z" fill="#E2E2E9"></path>
      <path d="M164.31 33.3619C162.57 33.3619 161.096 32.8255 159.891 31.6856C158.754 30.5456 158.15 29.1375 158.15 27.327C158.15 25.6506 158.686 24.1754 159.825 23.0354C160.962 21.8955 162.369 21.292 164.11 21.292C165.85 21.292 167.189 21.8955 168.26 23.0354C169.332 24.1754 169.867 25.7176 169.867 27.5952V28.2658H161.364C161.431 29.0033 161.766 29.6739 162.369 30.1433C162.971 30.6797 163.708 30.8809 164.645 30.8809C165.181 30.8809 165.716 30.7468 166.318 30.5456C166.922 30.3444 167.39 30.0762 167.724 29.741L169.064 31.6856C167.859 32.8255 166.318 33.3619 164.31 33.3619ZM166.922 26.2541C166.855 25.5835 166.587 25.0471 166.118 24.5107C165.649 23.9742 164.98 23.706 164.043 23.706C163.172 23.706 162.502 23.9742 162.033 24.5107C161.565 25.0471 161.297 25.5835 161.231 26.2541H166.922Z" fill="#E2E2E9"></path>
      <path d="M175.023 33.0938H172.01V21.6273H175.023V23.1695C175.424 22.6331 176.027 22.1637 176.629 21.8284C177.299 21.4932 177.969 21.292 178.638 21.292V24.2424C178.437 24.1754 178.169 24.1754 177.834 24.1754C177.299 24.1754 176.763 24.3095 176.228 24.5777C175.625 24.8459 175.223 25.1141 175.023 25.5165V33.0938Z" fill="#E2E2E9"></path>
      <path d="M106.73 53.6786H104.788V40.6028L99.4323 53.6786H98.562L93.2058 40.6028V53.6786H91.1973V37.8535H94.0093L98.8967 49.7894L103.851 37.8535H106.663V53.6786H106.73Z" fill="#E2E2E9"></path>
      <path d="M119.249 53.681H117.441V52.4069C116.503 53.4798 115.231 54.0163 113.625 54.0163C112.553 54.0163 111.616 53.681 110.813 53.0104C110.009 52.3399 109.607 51.4011 109.607 50.2612C109.607 49.0542 110.009 48.1154 110.813 47.4448C111.616 46.7743 112.553 46.439 113.625 46.439C115.231 46.439 116.503 46.9755 117.441 47.9813V45.9025C117.441 45.165 117.173 44.5614 116.637 44.0921C116.102 43.6898 115.432 43.4215 114.562 43.4215C113.223 43.4215 112.018 43.958 111.08 45.0308L110.277 43.8239C111.482 42.5498 113.022 41.9463 114.83 41.9463C116.169 41.9463 117.24 42.2816 118.043 42.885C118.847 43.4886 119.249 44.4944 119.249 45.8355V53.681ZM114.361 52.6751C115.767 52.6751 116.838 52.2058 117.508 51.267V49.1212C116.838 48.1824 115.767 47.713 114.361 47.713C113.558 47.713 112.888 47.9142 112.352 48.3836C111.817 48.853 111.549 49.4565 111.549 50.1941C111.549 50.9317 111.817 51.5352 112.352 52.0046C112.821 52.474 113.491 52.6751 114.361 52.6751Z" fill="#E2E2E9"></path>
      <path d="M124.607 53.6783H122.799V42.2119H124.607V44.0894C125.678 42.6813 126.95 42.0107 128.423 42.0107V43.8212C128.222 43.7541 127.954 43.7541 127.686 43.7541C127.151 43.7541 126.548 43.9553 125.946 44.2906C125.343 44.693 124.874 45.0953 124.607 45.5646V53.6783Z" fill="#E2E2E9"></path>
      <path d="M140.74 53.6786H138.464L134.313 48.5154L132.439 50.3929V53.6786H130.631V37.8535H132.439V48.3142L138.464 42.2121H140.74L135.652 47.4424L140.74 53.6786Z" fill="#E2E2E9"></path>
      <path d="M147.973 53.9479C146.232 53.9479 144.894 53.4114 143.755 52.2715C142.684 51.1316 142.148 49.7234 142.148 47.9129C142.148 46.2365 142.684 44.8284 143.755 43.6213C144.827 42.4814 146.165 41.8779 147.773 41.8779C149.446 41.8779 150.785 42.4814 151.789 43.6213C152.794 44.7613 153.262 46.2365 153.262 48.047V48.5164H143.956C144.023 49.6564 144.425 50.5951 145.161 51.3328C145.898 52.0703 146.902 52.4727 148.04 52.4727C149.446 52.4727 150.651 52.0033 151.589 50.9975L152.459 52.1374C151.321 53.3443 149.848 53.9479 147.973 53.9479ZM151.522 47.2423C151.522 46.2365 151.187 45.3648 150.517 44.5601C149.848 43.7554 148.91 43.3531 147.773 43.3531C146.634 43.3531 145.763 43.7554 145.094 44.4931C144.425 45.2977 144.09 46.1695 144.023 47.1753H151.522V47.2423Z" fill="#E2E2E9"></path>
      <path d="M159.02 53.9468C158.15 53.9468 157.547 53.7457 157.145 53.2763C156.744 52.8069 156.476 52.1363 156.476 51.2646V43.7544H154.602V42.2122H156.476V39.0605H158.284V42.2122H160.628V43.7544H158.284V50.8622C158.284 51.3316 158.351 51.6669 158.551 51.9352C158.753 52.2034 159.02 52.3375 159.422 52.3375C159.958 52.3375 160.359 52.2034 160.628 51.8681L161.163 53.2092C160.628 53.7457 159.958 53.9468 159.02 53.9468Z" fill="#E2E2E9"></path>
      <path d="M163.974 40.5361C163.64 40.5361 163.371 40.402 163.171 40.2008C162.903 39.9997 162.836 39.6644 162.836 39.3291C162.836 38.9938 162.97 38.7256 163.171 38.4574C163.438 38.1892 163.706 38.1221 163.974 38.1221C164.309 38.1221 164.577 38.2562 164.844 38.4574C165.112 38.7256 165.179 38.9938 165.179 39.3291C165.179 39.6644 165.046 39.9326 164.844 40.2008C164.577 40.469 164.309 40.5361 163.974 40.5361ZM164.911 53.6789H163.104V42.2125H164.911V53.6789Z" fill="#E2E2E9"></path>
      <path d="M177.971 53.681H176.163V46.1708C176.163 45.232 175.962 44.4944 175.494 44.0921C175.025 43.6898 174.422 43.4886 173.619 43.4886C172.949 43.4886 172.28 43.6898 171.677 44.0251C171.074 44.3602 170.539 44.7626 170.204 45.2991V53.681H168.396V42.2145H170.204V43.8909C170.672 43.3545 171.209 42.885 172.011 42.5498C172.748 42.1475 173.551 41.9463 174.288 41.9463C176.698 41.9463 177.971 43.1533 177.971 45.6344V53.681Z" fill="#E2E2E9"></path>
      <path d="M186.135 58.3064C185.131 58.3064 184.26 58.1723 183.523 57.9712C182.787 57.703 182.117 57.3006 181.515 56.6301L182.385 55.289C183.256 56.3619 184.527 56.8312 186.135 56.8312C187.206 56.8312 188.076 56.563 188.746 55.9596C189.416 55.4231 189.817 54.5514 189.817 53.3443V51.735C189.416 52.3385 188.812 52.808 188.143 53.2102C187.474 53.6126 186.737 53.8138 185.933 53.8138C184.394 53.8138 183.189 53.2773 182.252 52.2044C181.314 51.1316 180.846 49.6564 180.846 47.8459C180.846 46.0354 181.314 44.5601 182.252 43.4872C183.189 42.4143 184.394 41.8779 185.933 41.8779C187.474 41.8779 188.812 42.5485 189.75 43.8896V42.1461H191.558V53.2773C191.558 55.0207 191.022 56.2949 190.018 57.0995C189.014 57.9712 187.675 58.3064 186.135 58.3064ZM186.402 52.2715C187.072 52.2715 187.741 52.0703 188.411 51.735C189.081 51.3998 189.549 50.9304 189.817 50.3939V45.3648C189.482 44.8284 189.014 44.426 188.411 44.0237C187.808 43.6884 187.139 43.4872 186.402 43.4872C185.264 43.4872 184.394 43.8896 183.725 44.6943C183.055 45.4989 182.72 46.5718 182.72 47.8459C182.72 49.1199 183.055 50.1927 183.725 50.9975C184.394 51.8691 185.264 52.2715 186.402 52.2715Z" fill="#E2E2E9"></path>
      <path d="M208.095 53.6786H206.689V46.1684H196.646V53.6786H195.307V37.8535H196.646V44.9614H206.689V37.8535H208.095V53.6786Z" fill="#E2E2E9"></path>
      <path d="M220.951 53.6803H219.746V52.0039C219.211 52.6074 218.608 53.0768 217.872 53.4121C217.136 53.7474 216.399 53.9486 215.595 53.9486C214.39 53.9486 213.52 53.6803 212.917 53.0768C212.314 52.4733 212.047 51.5345 212.047 50.2605V42.2139H213.252V49.9923C213.252 51.0651 213.52 51.8028 213.988 52.2051C214.457 52.6074 215.126 52.8086 216.064 52.8086C216.801 52.8086 217.47 52.6074 218.14 52.2722C218.809 51.9369 219.344 51.4675 219.746 50.931V42.2139H220.951V53.6803Z" fill="#E2E2E9"></path>
      <path d="M225.971 53.6786H224.766V37.8535H225.971V44.0896C226.975 42.6815 228.315 41.9439 229.988 41.9439C231.528 41.9439 232.733 42.4803 233.671 43.6203C234.608 44.7602 235.077 46.1684 235.077 47.9789C235.077 49.7894 234.608 51.2646 233.671 52.3375C232.733 53.4104 231.461 53.9468 229.988 53.9468C229.185 53.9468 228.381 53.7456 227.712 53.3433C226.975 52.941 226.44 52.4716 226.038 51.8011V53.6786H225.971ZM225.971 50.7952C226.306 51.3987 226.842 51.8681 227.511 52.2704C228.181 52.6728 228.917 52.8739 229.721 52.8739C230.992 52.8739 231.929 52.4045 232.666 51.4658C233.403 50.527 233.737 49.387 233.737 47.9789C233.737 46.5707 233.403 45.3638 232.666 44.4249C231.929 43.4862 230.992 43.0168 229.721 43.0168C228.984 43.0168 228.248 43.218 227.511 43.6203C226.775 44.0226 226.306 44.492 225.904 45.0955V50.7952H225.971Z" fill="#E2E2E9"></path>
      <path d="M86.2441 38.5928H46.6758L66.4265 58.3741L86.2441 38.5928Z" fill="#E2E2E9"></path>
      <path d="M66.424 18.8105V58.4402L46.7402 38.6589L66.424 18.8105Z" fill="white"></path>
    </g>
  </g>
  <defs>
    <clipPath id="clip0_3106_3826">
      <rect width="190.075" height="46" fill="white" transform="translate(45 17)"></rect>
    </clipPath>
  </defs>
</svg>
