<svg width="194" height="126" viewBox="0 0 194 126" fill="none" xmlns="http://www.w3.org/2000/svg">
<path d="M96.5693 42.625C149.351 42.625 192.139 33.4935 192.139 22.2293C192.139 10.965 149.351 1.8335 96.5693 1.8335C43.7878 1.8335 1 10.965 1 22.2293C1 33.4935 43.7878 42.625 96.5693 42.625Z" stroke="#121212" stroke-width="2" stroke-miterlimit="10"/>
<path d="M96.5693 70.0835C149.351 70.0835 192.139 60.952 192.139 49.6878C192.139 38.4235 149.351 29.292 96.5693 29.292C43.7878 29.292 1 38.4235 1 49.6878C1 60.952 43.7878 70.0835 96.5693 70.0835Z" stroke="#121212" stroke-width="2" stroke-miterlimit="10"/>
<path d="M96.5693 97.5415C149.351 97.5415 192.139 88.4101 192.139 77.1458C192.139 65.8815 149.351 56.75 96.5693 56.75C43.7878 56.75 1 65.8815 1 77.1458C1 88.4101 43.7878 97.5415 96.5693 97.5415Z" stroke="#121212" stroke-width="2" stroke-miterlimit="10"/>
<path d="M96.5693 125C149.351 125 192.139 115.868 192.139 104.604C192.139 93.34 149.351 84.2085 96.5693 84.2085C43.7878 84.2085 1 93.34 1 104.604C1 115.868 43.7878 125 96.5693 125Z" stroke="#121212" stroke-width="2" stroke-miterlimit="10"/>
</svg>
