<?xml version="1.0" encoding="UTF-8"?>
<svg xmlns="http://www.w3.org/2000/svg" width="42" height="42" viewBox="0 0 42 42" fill="none">
  <path d="M26.2 22.16V27.6201C26.2 32.1801 24.38 34 19.82 34H14.38C9.84 34 8 32.1801 8 27.6201V22.16C8 17.62 9.82 15.8 14.38 15.8H19.84C24.38 15.8 26.2 17.62 26.2 22.16Z" stroke="#ffffff" stroke-width="2" stroke-linecap="round" stroke-linejoin="round"></path>
  <path d="M34 14.36V19.82C34 24.38 32.1801 26.2 27.6201 26.2H26.2001V22.16C26.2001 17.62 24.38 15.8 19.82 15.8H15.8V14.36C15.8 9.8 17.62 8 22.18 8H27.64C32.18 8 34 9.82 34 14.36Z" stroke="#ffffff" stroke-width="2" stroke-linecap="round" stroke-linejoin="round"></path>
  <path d="M41 27C41 34.74 34.74 41 27 41L29.1 37.5" stroke="#ffffff" stroke-width="2" stroke-linecap="round" stroke-linejoin="round"></path>
  <path d="M1 15C1 7.26 7.26 1 15 1L12.9 4.5" stroke="#ffffff" stroke-width="2" stroke-linecap="round" stroke-linejoin="round"></path>
</svg>
