<svg width="462" height="246" viewBox="0 0 462 246" fill="none" xmlns="http://www.w3.org/2000/svg">
<g clip-path="url(#clip0_593_3696)">
<path d="M291.646 349.361C291.646 536.232 323.976 687.722 363.857 687.722C403.738 687.722 436.068 536.232 436.068 349.361C436.068 162.489 403.738 11 363.857 11C323.976 11 291.646 162.489 291.646 349.361Z" stroke="#121212" stroke-width="2" stroke-miterlimit="10"/>
<path d="M194.431 349.361C194.431 536.232 226.76 687.722 266.641 687.722C306.522 687.722 338.852 536.232 338.852 349.361C338.852 162.489 306.522 11 266.641 11C226.76 11 194.431 162.489 194.431 349.361Z" stroke="#121212" stroke-width="2" stroke-miterlimit="10"/>
<path d="M97.2148 349.361C97.2148 536.232 129.545 687.722 169.425 687.722C209.306 687.722 241.636 536.232 241.636 349.361C241.636 162.489 209.306 11 169.425 11C129.545 11 97.2148 162.489 97.2148 349.361Z" stroke="#121212" stroke-width="2" stroke-miterlimit="10"/>
<path d="M4.6857e-07 349.361C-7.69984e-06 536.232 32.3297 687.722 72.2105 687.722C112.091 687.722 144.421 536.232 144.421 349.361C144.421 162.489 112.091 11 72.2105 11C32.3297 11 8.63698e-06 162.489 4.6857e-07 349.361Z" stroke="#121212" stroke-width="2" stroke-miterlimit="10"/>
</g>
<defs>
<clipPath id="clip0_593_3696">
<rect width="462" height="246" fill="white"/>
</clipPath>
</defs>
</svg>
