<?xml version="1.0" encoding="UTF-8"?>
<svg xmlns="http://www.w3.org/2000/svg" width="40" height="40" viewBox="0 0 40 40" fill="none">
  <path d="M34.3977 11V29C34.3977 36.2 32.5977 38 25.3977 38H14.5977C7.39766 38 5.59766 36.2 5.59766 29V11C5.59766 3.8 7.39766 2 14.5977 2H25.3977C32.5977 2 34.3977 3.8 34.3977 11Z" stroke="white" stroke-width="2" stroke-linecap="round" stroke-linejoin="round"></path>
  <path d="M23.5984 8.2998H16.3984" stroke="white" stroke-width="2" stroke-linecap="round" stroke-linejoin="round"></path>
  <path d="M19.997 32.7802C21.5379 32.7802 22.787 31.5311 22.787 29.9902C22.787 28.4493 21.5379 27.2002 19.997 27.2002C18.4562 27.2002 17.207 28.4493 17.207 29.9902C17.207 31.5311 18.4562 32.7802 19.997 32.7802Z" stroke="white" stroke-width="2" stroke-linecap="round" stroke-linejoin="round"></path>
</svg>
