<svg width="607" height="141" viewBox="0 0 607 141" fill="none" xmlns="http://www.w3.org/2000/svg">
<path d="M250.013 -107.5C250.013 29.7427 226.269 141 196.98 141C167.691 141 143.947 29.7427 143.947 -107.5C143.947 -244.743 167.691 -356 196.98 -356C226.269 -356 250.013 -244.743 250.013 -107.5Z" stroke="white" stroke-width="2" stroke-miterlimit="10"/>
<path d="M321.411 -107.5C321.411 29.7427 297.667 141 268.377 141C239.088 141 215.344 29.7427 215.344 -107.5C215.344 -244.743 239.088 -356 268.377 -356C297.667 -356 321.411 -244.743 321.411 -107.5Z" stroke="white" stroke-width="2" stroke-miterlimit="10"/>
<path d="M107.219 -107.5C107.219 29.7427 83.4748 141 54.1853 141C24.8958 141 1.15199 29.7427 1.15199 -107.5C1.15198 -244.743 24.8958 -356 54.1853 -356C83.4747 -356 107.219 -244.743 107.219 -107.5Z" stroke="white" stroke-width="2" stroke-miterlimit="10"/>
<path d="M178.616 -107.5C178.616 29.7427 154.872 141 125.582 141C96.293 141 72.5492 29.7427 72.5492 -107.5C72.5492 -244.743 96.293 -356 125.582 -356C154.872 -356 178.616 -244.743 178.616 -107.5Z" stroke="white" stroke-width="2" stroke-miterlimit="10"/>
<path d="M392.808 -107.5C392.808 29.7427 369.064 141 339.775 141C310.486 141 286.742 29.7427 286.742 -107.5C286.742 -244.743 310.486 -356 339.775 -356C369.064 -356 392.808 -244.743 392.808 -107.5Z" stroke="white" stroke-width="2" stroke-miterlimit="10"/>
<path d="M464.206 -107.5C464.206 29.7427 440.462 141 411.173 141C381.883 141 358.139 29.7427 358.139 -107.5C358.139 -244.743 381.883 -356 411.173 -356C440.462 -356 464.206 -244.743 464.206 -107.5Z" stroke="white" stroke-width="2" stroke-miterlimit="10"/>
<path d="M535.603 -107.5C535.603 29.7427 511.859 141 482.57 141C453.28 141 429.537 29.7427 429.537 -107.5C429.537 -244.743 453.28 -356 482.57 -356C511.859 -356 535.603 -244.743 535.603 -107.5Z" stroke="white" stroke-width="2" stroke-miterlimit="10"/>
<path d="M607 -107.5C607 29.7427 583.256 141 553.967 141C524.678 141 500.934 29.7427 500.934 -107.5C500.934 -244.743 524.678 -356 553.967 -356C583.256 -356 607 -244.743 607 -107.5Z" stroke="white" stroke-width="2" stroke-miterlimit="10"/>
</svg>
