<svg xmlns="http://www.w3.org/2000/svg" viewBox="0 0 78 79" fill="none" id="smile-4"><g clip-path="url(#bsa)"><path d="M75.651 48.244c4.775-20.48-7.747-41.004-27.968-45.84C27.462-2.432 7.2 10.25 2.423 30.731c-4.774 20.48 7.748 41.003 27.97 45.84 20.22 4.835 40.484-7.847 45.258-28.327z" fill="#FFF0D7"/><path d="M18.715 30.64c0-1.883 1.474-3.376 3.333-3.376 1.858 0 3.332 1.493 3.332 3.375 0 1.883-1.474 3.376-3.332 3.376-1.859 0-3.333-1.493-3.333-3.376zM52.62 30.64c0-1.883 1.474-3.376 3.332-3.376 1.86 0 3.333 1.493 3.333 3.375 0 1.883-1.474 3.376-3.333 3.376-1.794 0-3.332-1.493-3.332-3.376z" fill="#121212"/><path d="M59.221 45.894c-2.692 8.763-10.703 15.06-20.253 15.06-9.486 0-17.561-6.361-20.253-15.06M20.381 44.92l-3.845 1.883M57.619 44.92l3.845 1.883" stroke="#121212" stroke-width="2" stroke-miterlimit="10" stroke-linecap="round" stroke-linejoin="round"/></g><defs><clipPath id="bsa"><path fill="#fff" d="M0 0h78v79H0z"/></clipPath></defs></svg>
