<svg xmlns="http://www.w3.org/2000/svg" viewBox="0 0 78 79" fill="none" id="smile-3"><path d="M39.032 77.637c20.778 0 37.622-17.06 37.622-38.104 0-21.045-16.844-38.105-37.622-38.105S1.41 18.488 1.41 39.533c0 21.044 16.844 38.104 37.622 38.104z" fill="#C5EDE2"/><path d="M18.715 30.64c0-1.883 1.474-3.376 3.333-3.376 1.858 0 3.332 1.493 3.332 3.375 0 1.883-1.474 3.376-3.332 3.376-1.859 0-3.333-1.493-3.333-3.376zM52.62 30.64c0-1.883 1.474-3.376 3.332-3.376 1.86 0 3.333 1.493 3.333 3.375 0 1.883-1.474 3.376-3.333 3.376-1.794 0-3.332-1.493-3.332-3.376z" fill="#121212"/><path d="M19.548 49.919h38.904" stroke="#121212" stroke-width="2" stroke-miterlimit="10" stroke-linecap="round" stroke-linejoin="round"/></svg>
