<svg xmlns="http://www.w3.org/2000/svg" viewBox="0 0 79 79" fill="none" id="smile-5"><g clip-path="url(#bta)"><path d="M66.487 66.448c14.88-14.88 14.88-39.007 0-53.887-14.88-14.88-39.007-14.88-53.887 0-14.88 14.88-14.88 39.007 0 53.887 14.88 14.88 39.006 14.88 53.887 0z" fill="#FFEDF7"/><path d="M26.03 28.043c-1.298-.65-2.856-.195-3.505 1.103-.195.325-.26.585-.26.974 0-.39-.065-.649-.26-.974-.649-1.298-2.271-1.752-3.505-1.103a2.486 2.486 0 0 0-1.363 2.012c-.195 1.688 1.493 2.662 2.597 3.635l2.531 2.143c.78-.65 1.493-1.299 2.272-1.948.52-.454 1.104-.974 1.623-1.428.714-.65 1.298-1.233 1.233-2.272 0-.909-.519-1.753-1.363-2.142zM52.97 28.043c1.297-.65 2.855-.195 3.505 1.103.194.325.26.585.26.974 0-.39.064-.649.259-.974.649-1.298 2.272-1.752 3.505-1.103a2.486 2.486 0 0 1 1.363 2.012c.195 1.688-1.493 2.662-2.596 3.635l-2.532 2.143c-.779-.65-1.493-1.299-2.272-1.948-.52-.454-1.103-.974-1.623-1.428-.714-.65-1.298-1.233-1.233-2.272 0-.909.52-1.753 1.363-2.142z" fill="#121212" stroke="#121212" stroke-width="2" stroke-miterlimit="10" stroke-linecap="round" stroke-linejoin="round"/><path d="M59.98 45.894a21.41 21.41 0 0 1-20.513 15.06c-9.672 0-17.786-6.361-20.512-15.06M20.642 44.92l-3.894 1.883M58.357 44.92l3.895 1.883" stroke="#121212" stroke-width="2" stroke-miterlimit="10" stroke-linecap="round" stroke-linejoin="round"/></g><defs><clipPath id="bta"><path fill="#fff" d="M0 0h79v79H0z"/></clipPath></defs></svg>
