<svg xmlns="http://www.w3.org/2000/svg" viewBox="0 0 78 78" fill="none" id="smile-1"><g clip-path="url(#bpa)"><path d="M75.651 47.633c4.775-20.221-7.747-40.485-27.968-45.26C27.462-2.4 7.2 10.122 2.423 30.343c-4.774 20.221 7.748 40.484 27.97 45.26 20.22 4.774 40.484-7.748 45.258-27.97z" fill="#E6E6E6"/><path d="M18.715 32.623a3.31 3.31 0 0 1 3.333-3.333 3.31 3.31 0 0 1 3.332 3.333 3.31 3.31 0 0 1-3.332 3.333 3.31 3.31 0 0 1-3.333-3.333zM52.62 32.623a3.31 3.31 0 0 1 3.332-3.333 3.31 3.31 0 0 1 3.333 3.333 3.31 3.31 0 0 1-3.333 3.333c-1.794 0-3.332-1.475-3.332-3.333z" fill="#121212"/><path d="M20.766 56.785C23.842 49.736 30.828 44.8 38.968 44.8c8.14 0 15.19 4.935 18.202 11.986M19.227 21.214l8.717 5.256M58.772 21.214l-8.716 5.256" stroke="#121212" stroke-width="2" stroke-miterlimit="10" stroke-linecap="round" stroke-linejoin="round"/></g><defs><clipPath id="bpa"><path fill="#fff" d="M0 0h78v78H0z"/></clipPath></defs></svg>
