<svg xmlns="http://www.w3.org/2000/svg" viewBox="0 0 79 79" fill="none" id="smile-2"><g clip-path="url(#bqa)"><path d="M66.487 66.448c14.88-14.88 14.88-39.007 0-53.887-14.88-14.88-39.007-14.88-53.887 0-14.88 14.88-14.88 39.007 0 53.887 14.88 14.88 39.006 14.88 53.887 0z" fill="#D8D7F4"/><path d="M18.955 30.64a3.352 3.352 0 0 1 3.375-3.376 3.352 3.352 0 0 1 3.376 3.375 3.352 3.352 0 0 1-3.376 3.376 3.352 3.352 0 0 1-3.375-3.376zM53.294 30.64a3.352 3.352 0 0 1 3.376-3.376 3.352 3.352 0 0 1 3.375 3.375 3.352 3.352 0 0 1-3.376 3.376c-1.817 0-3.375-1.493-3.375-3.376z" fill="#121212"/><path d="M21.032 55.112c3.116-7.14 10.191-12.139 18.435-12.139 8.244 0 15.385 4.998 18.436 12.139" stroke="#121212" stroke-width="2" stroke-miterlimit="10" stroke-linecap="round" stroke-linejoin="round"/></g><defs><clipPath id="bqa"><path fill="#fff" d="M0 0h79v79H0z"/></clipPath></defs></svg>
