<svg width="827" height="238" viewBox="0 0 827 238" fill="none" xmlns="http://www.w3.org/2000/svg">
<path d="M487.078 339.361C487.078 526.232 519.408 677.722 559.288 677.722C599.169 677.722 631.499 526.232 631.499 339.361C631.499 152.489 599.169 0.999999 559.288 0.999997C519.408 0.999995 487.078 152.489 487.078 339.361Z" stroke="#121212" stroke-width="2" stroke-miterlimit="10"/>
<path d="M389.862 339.361C389.862 526.232 422.192 677.722 462.073 677.722C501.954 677.722 534.283 526.232 534.283 339.361C534.284 152.489 501.954 0.999999 462.073 0.999997C422.192 0.999995 389.862 152.489 389.862 339.361Z" stroke="#121212" stroke-width="2" stroke-miterlimit="10"/>
<path d="M681.509 339.361C681.509 526.232 713.839 677.722 753.72 677.722C793.601 677.722 825.931 526.232 825.931 339.361C825.931 152.489 793.601 0.999999 753.72 0.999997C713.839 0.999995 681.509 152.489 681.509 339.361Z" stroke="#121212" stroke-width="2" stroke-miterlimit="10"/>
<path d="M584.294 339.361C584.294 526.232 616.624 677.722 656.505 677.722C696.385 677.722 728.715 526.232 728.715 339.361C728.715 152.489 696.385 0.999999 656.505 0.999997C616.624 0.999995 584.294 152.489 584.294 339.361Z" stroke="#121212" stroke-width="2" stroke-miterlimit="10"/>
<path d="M292.646 339.361C292.646 526.232 324.976 677.722 364.857 677.722C404.738 677.722 437.068 526.232 437.068 339.361C437.068 152.489 404.738 0.999999 364.857 0.999997C324.976 0.999995 292.646 152.489 292.646 339.361Z" stroke="#121212" stroke-width="2" stroke-miterlimit="10"/>
<path d="M195.431 339.361C195.431 526.232 227.761 677.722 267.641 677.722C307.522 677.722 339.852 526.232 339.852 339.361C339.852 152.489 307.522 0.999999 267.641 0.999997C227.761 0.999995 195.431 152.489 195.431 339.361Z" stroke="#121212" stroke-width="2" stroke-miterlimit="10"/>
<path d="M98.215 339.361C98.2149 526.232 130.545 677.722 170.426 677.722C210.307 677.722 242.636 526.232 242.636 339.361C242.636 152.489 210.307 0.999999 170.426 0.999997C130.545 0.999995 98.215 152.489 98.215 339.361Z" stroke="#121212" stroke-width="2" stroke-miterlimit="10"/>
<path d="M1.00006 339.361C1.00005 526.232 33.3298 677.722 73.2106 677.722C113.091 677.722 145.421 526.232 145.421 339.361C145.421 152.489 113.091 0.999999 73.2106 0.999997C33.3298 0.999995 1.00007 152.489 1.00006 339.361Z" stroke="#121212" stroke-width="2" stroke-miterlimit="10"/>
</svg>
